<svg width="115" height="44" viewBox="0 0 115 44" fill="none" xmlns="http://www.w3.org/2000/svg">
<rect x="0.699951" y="0.609863" width="113" height="42.9" rx="7.5" fill="#131022"/>
<rect x="0.699951" y="0.609863" width="113" height="42.9" rx="7.5" stroke="#131022"/>
<g clip-path="url(#clip0_20005129_189)">
<g clip-path="url(#clip1_20005129_189)">
<g clip-path="url(#clip2_20005129_189)">
<path d="M25.6868 22.1698C25.6868 19.5211 27.928 18.2306 27.9959 18.1627C26.7055 16.329 24.7359 16.1252 24.0568 16.0573C22.4268 15.8536 20.7968 17.0081 19.9139 17.0081C19.0309 17.0081 17.7405 16.0573 16.3143 16.0573C14.4805 16.0573 12.7826 17.0761 11.8997 18.7061C9.99802 21.9661 11.4243 26.7202 13.258 29.3011C14.2089 30.5915 15.2276 32.0177 16.6539 31.9498C18.0122 31.8819 18.5555 31.0669 20.1855 31.0669C21.8155 31.0669 22.2909 31.9498 23.7172 31.8819C25.2114 31.8819 26.0943 30.5915 26.9772 29.3011C28.0639 27.8069 28.4714 26.3806 28.4714 26.3127C28.5393 26.3806 25.6868 25.3619 25.6868 22.1698Z" fill="white"/>
<path d="M22.9701 14.3595C23.7172 13.4765 24.1926 12.254 24.0568 10.9636C22.9701 11.0315 21.6797 11.7107 20.8647 12.5936C20.1855 13.3407 19.5743 14.6311 19.7101 15.8536C20.9326 15.9215 22.223 15.2424 22.9701 14.3595Z" fill="white"/>
<path d="M45.5184 31.814H43.6167L42.598 28.6219H38.8626L37.8438 31.814H35.9421L39.5417 20.8794H41.783L45.5184 31.814ZM42.1905 27.2636L41.2396 24.4111C41.1717 24.1394 40.968 23.4602 40.6963 22.3736C40.5605 22.849 40.4246 23.5281 40.153 24.4111L39.2021 27.2636H42.1905Z" fill="white"/>
<path d="M54.823 27.8069C54.823 29.1653 54.4834 30.184 53.7363 30.999C53.0572 31.6782 52.2422 32.0178 51.2234 32.0178C50.1367 32.0178 49.3897 31.6103 48.9142 30.8632V35.0061H47.0805V26.5165C47.0805 25.7015 47.0805 24.8186 47.0126 23.9357H48.5747L48.6426 25.1582C49.2538 24.2074 50.1367 23.7319 51.3592 23.7319C52.3101 23.7319 53.1251 24.0715 53.7363 24.8186C54.4834 25.6336 54.823 26.5844 54.823 27.8069ZM52.9892 27.8749C52.9892 27.1278 52.7855 26.4486 52.4459 25.9732C52.0384 25.4298 51.563 25.2261 50.8838 25.2261C50.4084 25.2261 50.0688 25.3619 49.6613 25.6336C49.3217 25.9053 49.0501 26.3128 48.9822 26.7882C48.9142 26.9919 48.9142 27.1957 48.9142 27.3315V28.6219C48.9142 29.1653 49.118 29.7086 49.4576 30.0482C49.7972 30.4557 50.2726 30.6594 50.8838 30.6594C51.563 30.6594 52.1063 30.3878 52.4459 29.9124C52.7855 29.369 52.9892 28.6899 52.9892 27.8749Z" fill="white"/>
<path d="M64.1276 27.8069C64.1276 29.1653 63.788 30.184 63.0409 30.999C62.3617 31.6782 61.5467 32.0178 60.528 32.0178C59.4413 32.0178 58.6942 31.6103 58.2188 30.8632V35.0061H56.3851V26.5165C56.3851 25.7015 56.3851 24.8186 56.3171 23.9357H57.8792L57.9471 25.1582C58.5584 24.2074 59.4413 23.7319 60.6638 23.7319C61.6146 23.7319 62.4296 24.0715 63.0409 24.8186C63.788 25.6336 64.1276 26.5844 64.1276 27.8069ZM62.2938 27.8749C62.2938 27.1278 62.0901 26.4486 61.7505 25.9732C61.343 25.4298 60.8676 25.2261 60.1884 25.2261C59.713 25.2261 59.3734 25.3619 58.9659 25.6336C58.6263 25.9053 58.3546 26.3128 58.2867 26.7882C58.2188 26.9919 58.2188 27.1957 58.2188 27.3315V28.6219C58.2188 29.1653 58.4226 29.7086 58.7621 30.0482C59.1017 30.4557 59.5771 30.6594 60.1884 30.6594C60.8676 30.6594 61.4109 30.3878 61.7505 29.9124C62.0901 29.369 62.2938 28.6899 62.2938 27.8749Z" fill="white"/>
<path d="M74.5867 28.7577C74.5867 29.7085 74.2471 30.4556 73.568 31.0668C72.8209 31.6781 71.8021 32.0177 70.5117 32.0177C69.2892 32.0177 68.3384 31.8139 67.5913 31.3385L67.9988 29.8443C68.8138 30.3197 69.6288 30.5235 70.5796 30.5235C71.2588 30.5235 71.8021 30.3877 72.1417 30.0481C72.5492 29.7764 72.6851 29.3689 72.6851 28.8256C72.6851 28.3502 72.5492 28.0106 72.2096 27.671C71.8701 27.3993 71.3946 27.0598 70.6476 26.856C68.678 26.1089 67.7271 25.0902 67.7271 23.7318C67.7271 22.8489 68.0667 22.1018 68.7459 21.4906C69.4251 20.9472 70.3759 20.6077 71.5305 20.6077C72.5492 20.6077 73.4321 20.8114 74.1113 21.151L73.6359 22.5772C73.0246 22.2377 72.2776 22.1018 71.4626 22.1018C70.8513 22.1018 70.308 22.2377 69.9684 22.5772C69.6967 22.8489 69.493 23.1885 69.493 23.596C69.493 24.0035 69.6967 24.411 70.0363 24.6827C70.308 24.9543 70.8513 25.226 71.6663 25.4977C72.6171 25.9052 73.3642 26.3127 73.7717 26.856C74.3151 27.3314 74.5867 28.0106 74.5867 28.7577Z" fill="white"/>
<path d="M80.4955 25.226H78.5259V29.0972C78.5259 30.0481 78.8655 30.5914 79.5447 30.5914C79.8843 30.5914 80.1559 30.5914 80.3597 30.5235L80.4276 31.8818C80.088 32.0176 79.6126 32.0856 79.0013 32.0856C78.3222 32.0856 77.7109 31.8818 77.3034 31.4743C76.8959 31.0668 76.6922 30.3197 76.6922 29.3689V25.3618H75.5376V24.0714H76.6922V22.6451L78.458 22.1018V24.0714H80.4276V25.226H80.4955Z" fill="white"/>
<path d="M89.4605 27.8069C89.4605 29.0294 89.1209 30.0481 88.3738 30.7952C87.6267 31.6102 86.608 32.0177 85.3855 32.0177C84.163 32.0177 83.28 31.6102 82.533 30.8631C81.8538 30.1161 81.4463 29.0973 81.4463 27.9427C81.4463 26.7202 81.7859 25.7015 82.533 24.9544C83.28 24.2073 84.2309 23.7998 85.4534 23.7998C86.6759 23.7998 87.6267 24.2073 88.3059 24.9544C89.1209 25.6336 89.4605 26.6523 89.4605 27.8069ZM87.6267 27.8748C87.6267 27.1277 87.4909 26.5165 87.1513 25.9731C86.7438 25.3619 86.2005 25.0223 85.5213 25.0223C84.7742 25.0223 84.2309 25.3619 83.8913 25.9731C83.5517 26.5165 83.4159 27.1277 83.4159 27.8748C83.4159 28.6219 83.5517 29.2331 83.8913 29.7765C84.2988 30.3877 84.8421 30.7273 85.5213 30.7273C86.2005 30.7273 86.7438 30.3877 87.1513 29.7765C87.423 29.2331 87.6267 28.6219 87.6267 27.8748Z" fill="white"/>
<path d="M95.3013 25.4978C95.0976 25.4978 94.9617 25.4299 94.758 25.4299C94.1467 25.4299 93.6034 25.6336 93.2638 26.109C92.9921 26.5165 92.7884 27.0598 92.7884 27.6711V31.814H90.9546V26.3807C90.9546 25.4978 90.9546 24.6148 90.8867 23.8678H92.4488L92.5167 25.3619H92.5846C92.7884 24.8186 93.0601 24.4111 93.4676 24.1394C93.8751 23.8678 94.2826 23.7319 94.758 23.7319C94.8938 23.7319 95.0976 23.7319 95.2334 23.7319V25.4978H95.3013Z" fill="white"/>
<path d="M103.383 27.5351C103.383 27.8747 103.383 28.1463 103.315 28.3501H97.8822C97.8822 29.0972 98.1538 29.7084 98.6972 30.1159C99.1726 30.4555 99.7159 30.6592 100.463 30.6592C101.278 30.6592 102.025 30.5234 102.636 30.2517L102.908 31.4742C102.161 31.8138 101.21 31.9497 100.191 31.9497C98.9009 31.9497 97.9501 31.6101 97.203 30.863C96.4559 30.1159 96.1163 29.1651 96.1163 27.9426C96.1163 26.7201 96.4559 25.7692 97.1351 24.9542C97.8142 24.1392 98.7651 23.6638 99.9876 23.6638C101.142 23.6638 102.025 24.0713 102.636 24.9542C103.112 25.7013 103.383 26.5163 103.383 27.5351ZM101.685 27.0597C101.685 26.5163 101.55 26.1088 101.346 25.7013C101.006 25.2259 100.531 24.9542 99.9197 24.9542C99.3084 24.9542 98.833 25.2259 98.4934 25.7013C98.2217 26.1088 98.018 26.5163 97.9501 27.0597H101.685Z" fill="white"/>
<path d="M41.5792 14.1556C41.5792 15.1064 41.3076 15.8535 40.6963 16.3289C40.153 16.8043 39.338 17.0081 38.3192 17.0081C37.8438 17.0081 37.3684 17.0081 37.0288 16.9402V11.6427C37.5042 11.5748 37.9796 11.5068 38.523 11.5068C39.4738 11.5068 40.2209 11.7106 40.6963 12.1181C41.3076 12.5935 41.5792 13.2727 41.5792 14.1556ZM40.6963 14.1556C40.6963 13.5443 40.4926 13.0689 40.153 12.7293C39.8134 12.3898 39.338 12.2539 38.6588 12.2539C38.3871 12.2539 38.1155 12.2539 37.9117 12.3218V16.3289C38.0476 16.3289 38.2513 16.3289 38.523 16.3289C39.2021 16.3289 39.7455 16.1252 40.0851 15.7856C40.4926 15.3781 40.6963 14.8348 40.6963 14.1556Z" fill="white"/>
<path d="M46.5372 14.9705C46.5372 15.5818 46.3334 16.0572 45.9939 16.4647C45.6543 16.8722 45.1109 17.0759 44.5676 17.0759C43.9564 17.0759 43.5489 16.8722 43.1414 16.5326C42.8018 16.1251 42.598 15.6497 42.598 15.1063C42.598 14.4951 42.8018 14.0197 43.1414 13.6122C43.4809 13.2047 43.9564 13.0688 44.5676 13.0688C45.1789 13.0688 45.6543 13.2726 45.9939 13.6122C46.4014 13.8838 46.5372 14.3593 46.5372 14.9705ZM45.6543 14.9705C45.6543 14.6309 45.5864 14.2913 45.4505 14.0197C45.2468 13.6801 44.9751 13.5443 44.6355 13.5443C44.2959 13.5443 44.0243 13.6801 43.8205 14.0197C43.6847 14.2913 43.6168 14.563 43.6168 14.9705C43.6168 15.3101 43.6847 15.6497 43.8205 15.9213C44.0243 16.2609 44.2959 16.3968 44.6355 16.3968C44.9751 16.3968 45.2468 16.2609 45.4505 15.9213C45.5864 15.6497 45.6543 15.378 45.6543 14.9705Z" fill="white"/>
<path d="M53.193 13.0688L51.9705 16.9401H51.1555L50.6121 15.2422C50.4763 14.8347 50.4084 14.4272 50.2725 14.0197C50.2046 14.4272 50.0688 14.8347 49.933 15.2422L49.3896 16.9401H48.5746L47.42 13.0688H48.303L48.7784 14.9026C48.9142 15.3101 48.9821 15.7855 49.05 16.1251C49.118 15.7855 49.2538 15.378 49.3896 14.9026L49.933 13.0688H50.68L51.2234 14.9026C51.3592 15.378 51.4271 15.7855 51.563 16.193C51.6309 15.7855 51.6988 15.378 51.8346 14.9026L52.31 13.0688H53.193Z" fill="white"/>
<path d="M57.8113 16.9401H56.9284V14.6989C56.9284 14.0197 56.6567 13.6801 56.1134 13.6801C55.8417 13.6801 55.638 13.7481 55.5021 13.9518C55.3663 14.1556 55.2305 14.3593 55.2305 14.631V16.9401H54.3475V14.1556C54.3475 13.816 54.3475 13.4764 54.3475 13.0689H55.0946L55.1625 13.6801C55.2984 13.4764 55.4342 13.3406 55.6379 13.2047C55.9096 13.0689 56.1134 13.001 56.453 13.001C56.7925 13.001 57.1321 13.1368 57.4038 13.3406C57.7434 13.6122 57.8792 14.0876 57.8792 14.631V16.9401H57.8113Z" fill="white"/>
<path d="M60.2563 16.9401H59.3734V11.303H60.2563V16.9401Z" fill="white"/>
<path d="M65.4179 14.9705C65.4179 15.5818 65.2142 16.0572 64.8746 16.4647C64.535 16.8722 63.9917 17.0759 63.4483 17.0759C62.8371 17.0759 62.4296 16.8722 62.0221 16.5326C61.6825 16.1251 61.4788 15.6497 61.4788 15.1063C61.4788 14.4951 61.6825 14.0197 62.0221 13.6122C62.3617 13.2047 62.8371 13.0688 63.4483 13.0688C64.0596 13.0688 64.535 13.2726 64.8746 13.6122C65.2821 13.8838 65.4179 14.3593 65.4179 14.9705ZM64.535 14.9705C64.535 14.6309 64.4671 14.2913 64.3313 14.0197C64.1275 13.6801 63.8558 13.5443 63.5163 13.5443C63.1767 13.5443 62.905 13.6801 62.7013 14.0197C62.5654 14.2913 62.4975 14.563 62.4975 14.9705C62.4975 15.3101 62.5654 15.6497 62.7013 15.9213C62.905 16.2609 63.1767 16.3968 63.5163 16.3968C63.8558 16.3968 64.1275 16.2609 64.3313 15.9213C64.4671 15.6497 64.535 15.378 64.535 14.9705Z" fill="white"/>
<path d="M69.6968 16.9401H68.8818L68.8139 16.4647C68.5422 16.8043 68.1347 17.0081 67.6593 17.0081C67.2518 17.0081 66.9801 16.8722 66.7764 16.6685C66.5726 16.4647 66.4368 16.1931 66.4368 15.8535C66.4368 15.3781 66.6405 15.0385 67.048 14.7668C67.4555 14.4951 67.9989 14.4272 68.7459 14.4272V14.3593C68.7459 13.816 68.4743 13.6122 67.9309 13.6122C67.5234 13.6122 67.1839 13.6801 66.9122 13.8839L66.7084 13.3406C67.048 13.1368 67.5234 13.001 68.0668 13.001C69.0855 13.001 69.6289 13.5443 69.6289 14.631V16.0572C69.6968 16.3968 69.6968 16.7364 69.6968 16.9401ZM68.8139 15.5818V15.0385C67.863 15.0385 67.3197 15.3101 67.3197 15.8535C67.3197 16.0572 67.3876 16.1931 67.5234 16.3289C67.6593 16.4647 67.7951 16.4647 67.9309 16.4647C68.1347 16.4647 68.3384 16.3968 68.4743 16.261C68.6101 16.1251 68.7459 15.9893 68.8139 15.7856C68.8139 15.7176 68.8139 15.6497 68.8139 15.5818Z" fill="white"/>
<path d="M74.7905 16.9401H73.9755L73.9076 16.3288C73.6359 16.8042 73.2284 17.008 72.6172 17.008C72.1418 17.008 71.7343 16.8721 71.4626 16.4646C71.123 16.1251 70.9872 15.6496 70.9872 15.0384C70.9872 14.4271 71.1909 13.8838 71.5305 13.5442C71.8701 13.2046 72.2776 13.0009 72.753 13.0009C73.2963 13.0009 73.6359 13.2046 73.9076 13.5442V11.303H74.7905V15.9213C74.7226 16.2609 74.7226 16.6005 74.7905 16.9401ZM73.8397 15.3101V14.6309C73.8397 14.4951 73.8397 14.4271 73.8397 14.3592C73.7718 14.1555 73.6359 14.0196 73.5001 13.8838C73.3643 13.748 73.1605 13.6801 72.8888 13.6801C72.5493 13.6801 72.2776 13.8159 72.1418 14.0876C71.938 14.3592 71.8701 14.6988 71.8701 15.0384C71.8701 15.4459 71.938 15.7176 72.1418 15.9892C72.3455 16.2609 72.6172 16.3967 72.8888 16.3967C73.1605 16.3967 73.4322 16.2609 73.568 16.0571C73.7718 15.7855 73.8397 15.5817 73.8397 15.3101Z" fill="white"/>
<path d="M82.3292 14.9705C82.3292 15.5818 82.1254 16.0572 81.7858 16.4647C81.4463 16.8722 80.9029 17.0759 80.3596 17.0759C79.7483 17.0759 79.3409 16.8722 78.9334 16.5326C78.5938 16.1251 78.39 15.6497 78.39 15.1063C78.39 14.4951 78.5938 14.0197 78.9334 13.6122C79.2729 13.2047 79.7483 13.0688 80.3596 13.0688C80.9708 13.0688 81.4463 13.2726 81.7858 13.6122C82.1933 13.8838 82.3292 14.3593 82.3292 14.9705ZM81.4463 14.9705C81.4463 14.6309 81.3784 14.2913 81.2425 14.0197C81.0388 13.6801 80.7671 13.5443 80.4275 13.5443C80.0879 13.5443 79.8163 13.6801 79.6125 14.0197C79.4767 14.2913 79.4088 14.563 79.4088 14.9705C79.4088 15.3101 79.4767 15.6497 79.6125 15.9213C79.8163 16.2609 80.0879 16.3968 80.4275 16.3968C80.7671 16.3968 81.0388 16.2609 81.2425 15.9213C81.3104 15.6497 81.4463 15.378 81.4463 14.9705Z" fill="white"/>
<path d="M87.0834 16.9401H86.2005V14.6989C86.2005 14.0197 85.9288 13.6801 85.3855 13.6801C85.1138 13.6801 84.91 13.7481 84.7742 13.9518C84.6384 14.1556 84.5025 14.3593 84.5025 14.631V16.9401H83.6196V14.1556C83.6196 13.816 83.6196 13.4764 83.6196 13.0689H84.3667L84.4346 13.6801C84.5705 13.4764 84.7063 13.3406 84.91 13.2047C85.1817 13.0689 85.3855 13.001 85.725 13.001C86.0646 13.001 86.4042 13.1368 86.6759 13.3406C87.0155 13.6122 87.1513 14.0876 87.1513 14.631V16.9401H87.0834Z" fill="white"/>
<path d="M93.0601 13.6803H92.1092V15.582C92.1092 16.0574 92.313 16.329 92.6526 16.329C92.7884 16.329 92.9242 16.329 93.0601 16.2611V16.9403C92.8563 17.0082 92.6526 17.0082 92.3809 17.0082C92.0413 17.0082 91.7696 16.8724 91.5659 16.6686C91.3621 16.4649 91.2942 16.1253 91.2942 15.6499V13.6803H90.683V13.0011H91.2942V12.322L92.1771 12.0503V13.0011H93.128L93.0601 13.6803Z" fill="white"/>
<path d="M97.7463 16.9401H96.8634V14.7667C96.8634 14.0876 96.5918 13.748 96.0484 13.748C95.6409 13.748 95.3693 13.9517 95.2334 14.3592C95.2334 14.4271 95.1655 14.563 95.1655 14.6988V17.008H94.2826V11.303H95.1655V13.6121C95.4372 13.2046 95.8447 13.0009 96.388 13.0009C96.7276 13.0009 97.0672 13.1367 97.2709 13.3405C97.5426 13.6121 97.7463 14.0876 97.7463 14.6309V16.9401Z" fill="white"/>
<path d="M102.568 14.8347C102.568 14.9706 102.568 15.1064 102.568 15.2422H99.9196C99.9196 15.6497 100.055 15.9214 100.327 16.1251C100.531 16.3289 100.87 16.3968 101.21 16.3968C101.618 16.3968 101.957 16.3289 102.297 16.1931L102.433 16.8043C102.025 16.9401 101.618 17.076 101.074 17.076C100.463 17.076 99.9875 16.8722 99.6479 16.5326C99.3084 16.1931 99.1046 15.7176 99.1046 15.1064C99.1046 14.4951 99.2404 14.0197 99.58 13.6122C99.9196 13.2047 100.395 13.001 101.006 13.001C101.55 13.001 102.025 13.2047 102.297 13.6122C102.433 13.9518 102.568 14.3593 102.568 14.8347ZM101.753 14.5631C101.753 14.2914 101.685 14.0876 101.55 13.8839C101.414 13.6122 101.142 13.5443 100.87 13.5443C100.599 13.5443 100.327 13.6801 100.191 13.8839C100.055 14.0876 99.9875 14.2914 99.9196 14.5631H101.753Z" fill="white"/>
</g>
</g>
</g>
<defs>
<clipPath id="clip0_20005129_189">
<rect width="92.4" height="24.45" fill="white" transform="translate(11 10.7598)"/>
</clipPath>
<clipPath id="clip1_20005129_189">
<rect width="92.4" height="24.45" fill="white" transform="translate(11 10.7598)"/>
</clipPath>
<clipPath id="clip2_20005129_189">
<rect width="92.3667" height="24.45" fill="white" transform="translate(11.0167 10.7598)"/>
</clipPath>
</defs>
</svg>
