<svg width="127" height="45" viewBox="0 0 127 45" fill="none" xmlns="http://www.w3.org/2000/svg">
<rect x="0.699951" y="0.609863" width="125" height="42.95" rx="7.5" fill="#131022"/>
<rect x="0.699951" y="0.609863" width="125" height="42.95" rx="7.5" stroke="#131022"/>
<g clip-path="url(#clip0_20005129_216)">
<g clip-path="url(#clip1_20005129_216)">
<g clip-path="url(#clip2_20005129_216)">
<path d="M45.1638 13.7699C45.1638 14.5374 44.9336 15.0747 44.4731 15.5352C43.9358 16.0724 43.3218 16.3027 42.4776 16.3027C41.7101 16.3027 41.0193 16.0724 40.4821 15.5352C39.9448 14.9979 39.6378 14.3839 39.6378 13.6164C39.6378 12.8489 39.9448 12.1582 40.4821 11.6977C41.0193 11.1604 41.7101 10.9302 42.4776 10.9302C42.8613 10.9302 43.2451 11.0069 43.5521 11.1604C43.9358 11.3139 44.1661 11.4674 44.3963 11.7744L44.0126 12.0814C43.6288 11.6209 43.1683 11.4674 42.5543 11.4674C42.0171 11.4674 41.4798 11.6977 41.0961 12.0814C40.7123 12.4652 40.4821 13.0024 40.4821 13.6164C40.4821 14.2304 40.7123 14.7677 41.0961 15.1514C41.4798 15.5352 42.0171 15.7654 42.5543 15.7654C43.1683 15.7654 43.6288 15.5352 44.0893 15.1514C44.3196 14.9212 44.4731 14.5374 44.5498 14.0769H42.6311V13.3094H45.2406C45.1638 13.4629 45.1638 13.6164 45.1638 13.7699Z" fill="white"/>
<path d="M49.3083 11.5442H46.8523V13.2327H49.078V13.8467H46.8523V15.5352H49.3083V16.1492H46.1615V10.9302H49.3083V11.5442Z" fill="white"/>
<path d="M52.2248 16.1492H51.534V11.5442H49.999V10.9302H53.683V11.5442H52.148V16.1492H52.2248Z" fill="white"/>
<path d="M56.3693 16.1492V10.9302H57.06V16.1492H56.3693Z" fill="white"/>
<path d="M60.13 16.1492H59.4393V11.5442H57.9043V10.9302H61.665V11.5442H60.13V16.1492Z" fill="white"/>
<path d="M68.6492 15.4585C68.112 15.9958 67.498 16.226 66.6537 16.226C65.8862 16.226 65.1955 15.9958 64.6582 15.4585C64.121 14.9213 63.8907 14.3073 63.8907 13.5398C63.8907 12.7723 64.121 12.1583 64.6582 11.621C65.1955 11.0838 65.8095 10.8535 66.6537 10.8535C67.4212 10.8535 68.112 11.0838 68.6492 11.621C69.1865 12.1583 69.4167 12.7723 69.4167 13.5398C69.4167 14.3073 69.1865 14.9213 68.6492 15.4585ZM65.1955 14.998C65.5792 15.3818 66.1165 15.612 66.6537 15.612C67.191 15.612 67.7282 15.3818 68.112 14.998C68.4957 14.6143 68.726 14.077 68.726 13.463C68.726 12.849 68.4957 12.3118 68.112 11.928C67.7282 11.5443 67.191 11.314 66.6537 11.314C66.0397 11.314 65.5792 11.5443 65.1955 11.928C64.8117 12.3118 64.5815 12.849 64.5815 13.463C64.5815 14.1538 64.8117 14.6143 65.1955 14.998Z" fill="white"/>
<path d="M70.4146 16.1492V10.9302H71.2588L73.8683 14.9979V14.0002V10.9302H74.5591V16.1492H73.8683L71.1053 11.8512V12.8489V16.1492H70.4146Z" fill="white"/>
<path d="M63.7373 23.8242C61.665 23.8242 59.8998 25.3592 59.8998 27.5082C59.8998 29.6572 61.5883 31.1922 63.7373 31.1922C65.8095 31.1922 67.5748 29.5804 67.5748 27.5082C67.5748 25.3592 65.8095 23.8242 63.7373 23.8242ZM63.7373 29.8107C62.586 29.8107 61.5883 28.8897 61.5883 27.5849C61.5883 26.2802 62.586 25.3592 63.7373 25.3592C64.8885 25.3592 65.8863 26.2802 65.8863 27.5849C65.8863 28.8129 64.8885 29.8107 63.7373 29.8107ZM55.3715 23.8242C53.2993 23.8242 51.534 25.3592 51.534 27.5082C51.534 29.6572 53.2225 31.1922 55.3715 31.1922C57.4438 31.1922 59.209 29.5804 59.209 27.5082C59.209 25.3592 57.5205 23.8242 55.3715 23.8242ZM55.3715 29.8107C54.2203 29.8107 53.2225 28.8897 53.2225 27.5849C53.2225 26.2802 54.2203 25.3592 55.3715 25.3592C56.5228 25.3592 57.5205 26.2802 57.5205 27.5849C57.5205 28.8129 56.5228 29.8107 55.3715 29.8107ZM45.4708 24.9754V26.5872H49.3083C49.2315 27.5082 48.9245 28.1222 48.464 28.5827C47.9268 29.1199 47.0058 29.7339 45.4708 29.7339C43.0915 29.7339 41.2495 27.8919 41.2495 25.5127C41.2495 23.1334 43.0915 21.2914 45.4708 21.2914C46.7755 21.2914 47.6965 21.7519 48.3873 22.4427L49.5385 21.2914C48.5408 20.3704 47.3128 19.6797 45.4708 19.6797C42.1705 19.6797 39.4843 22.2892 39.4843 25.4359C39.4843 28.5827 42.2473 31.1922 45.4708 31.1922C47.236 31.1922 48.5408 30.6549 49.6153 29.5804C50.6898 28.5059 50.9968 27.0477 50.9968 25.8964C50.9968 25.5127 50.9968 25.2057 50.92 24.8987H45.4708V24.9754ZM86.0715 26.2034C85.7645 25.3592 84.7668 23.8242 82.7713 23.8242C80.7758 23.8242 79.164 25.3592 79.164 27.5082C79.164 29.5804 80.7757 31.1922 82.9248 31.1922C84.69 31.1922 85.6878 30.1177 86.0715 29.5804L84.7668 28.7362C84.3063 29.3502 83.769 29.7339 82.9248 29.7339C82.0805 29.7339 81.4665 29.3502 81.0828 28.5827L86.1483 26.5104L86.0715 26.2034ZM80.8525 27.4314C80.7758 25.9732 82.0038 25.2824 82.848 25.2824C83.5388 25.2824 84.076 25.5894 84.2295 26.0499L80.8525 27.4314ZM76.708 31.0387H78.3965V20.0634H76.708V31.0387ZM73.945 24.6684C73.4845 24.2079 72.7938 23.8242 71.8728 23.8242C69.954 23.8242 68.1888 25.4359 68.1888 27.5849C68.1888 29.6572 69.954 31.2689 71.8728 31.2689C72.7938 31.2689 73.4845 30.8852 73.8683 30.4247H73.945V30.9619C73.945 32.4202 73.1775 33.1109 71.9495 33.1109C70.9518 33.1109 70.261 32.4202 70.0308 31.8062L68.5725 32.3434C68.9563 33.3412 70.1075 34.5692 71.9495 34.5692C73.945 34.5692 75.5568 33.4179 75.5568 30.7317V24.0544H73.945V24.6684ZM72.0263 29.8107C70.875 29.8107 69.8773 28.8897 69.8773 27.5849C69.8773 26.2802 70.875 25.2824 72.0263 25.2824C73.1775 25.2824 74.0985 26.2034 74.0985 27.5849C74.0985 28.8129 73.1775 29.8107 72.0263 29.8107ZM93.9 20.0634H89.909V30.9619H91.5975V26.8174H93.9C95.742 26.8174 97.584 25.5127 97.584 23.4404C97.584 21.3682 95.742 20.0634 93.9 20.0634ZM93.9 25.3592H91.5208V21.5984H93.9C95.128 21.5984 95.8955 22.5962 95.8955 23.4404C95.8955 24.3614 95.2048 25.3592 93.9 25.3592ZM104.261 23.7474C103.033 23.7474 101.805 24.2847 101.268 25.4359L102.726 26.0499C103.033 25.4359 103.647 25.2824 104.261 25.2824C105.105 25.2824 106.027 25.8197 106.027 26.6639V26.8174C105.72 26.6639 105.105 26.3569 104.261 26.3569C102.65 26.3569 101.038 27.2012 101.038 28.8129C101.038 30.2712 102.343 31.1922 103.801 31.1922C104.952 31.1922 105.566 30.7317 105.95 30.1177H106.027V30.9619H107.638V26.8174C107.638 24.8987 106.18 23.7474 104.261 23.7474ZM104.031 29.8107C103.494 29.8107 102.726 29.5804 102.726 28.8897C102.726 28.0454 103.647 27.7384 104.492 27.7384C105.259 27.7384 105.566 27.8919 106.027 28.1222C105.873 29.0432 105.029 29.8107 104.031 29.8107ZM113.548 24.0544L111.629 28.8129H111.553L109.557 24.0544H107.792L110.785 30.6549L109.097 34.3389H110.862L115.467 24.0544H113.548ZM98.505 31.0387H100.194V20.0634H98.505V31.0387Z" fill="white"/>
<path d="M11.3938 11.3906C11.1635 11.6209 11.01 12.0814 11.01 12.6186V31.9596C11.01 32.4969 11.1635 32.9574 11.3938 33.1876L11.4705 33.2644L22.5993 22.4426V22.2124L11.3938 11.3906Z" fill="url(#paint0_linear_20005129_216)"/>
<path d="M26.2832 25.9733L22.5992 22.3661V22.1358L26.2832 18.5286L26.36 18.6053L30.7347 21.0613C31.9627 21.7521 31.9627 22.9033 30.7347 23.5941L26.36 25.9733H26.2832Z" fill="url(#paint1_linear_20005129_216)"/>
<path d="M26.36 25.9733L22.5993 22.2893L11.3938 33.1878C11.8543 33.5716 12.545 33.6483 13.3125 33.1878L26.36 25.9733Z" fill="url(#paint2_linear_20005129_216)"/>
<path d="M26.36 18.6053L13.3125 11.314C12.545 10.9303 11.8543 10.9303 11.3938 11.3908L22.5225 22.2893L26.36 18.6053Z" fill="url(#paint3_linear_20005129_216)"/>
</g>
</g>
</g>
<defs>
<linearGradient id="paint0_linear_20005129_216" x1="21.4935" y1="32.2518" x2="6.82192" y2="17.2247" gradientUnits="userSpaceOnUse">
<stop stop-color="#00A0FF"/>
<stop offset="0.0066" stop-color="#00A1FF"/>
<stop offset="0.2601" stop-color="#00BEFF"/>
<stop offset="0.5122" stop-color="#00D2FF"/>
<stop offset="0.7604" stop-color="#00DFFF"/>
<stop offset="1" stop-color="#00E3FF"/>
</linearGradient>
<linearGradient id="paint1_linear_20005129_216" x1="32.3828" y1="22.2705" x2="10.7104" y2="22.2705" gradientUnits="userSpaceOnUse">
<stop stop-color="#FFE000"/>
<stop offset="0.4087" stop-color="#FFBD00"/>
<stop offset="0.7754" stop-color="#FFA500"/>
<stop offset="1" stop-color="#FF9C00"/>
</linearGradient>
<linearGradient id="paint2_linear_20005129_216" x1="16.8905" y1="27.5119" x2="-3.00542" y2="7.13394" gradientUnits="userSpaceOnUse">
<stop stop-color="#FF3A44"/>
<stop offset="1" stop-color="#C31162"/>
</linearGradient>
<linearGradient id="paint3_linear_20005129_216" x1="1.56742" y1="32.7264" x2="10.4518" y2="23.6267" gradientUnits="userSpaceOnUse">
<stop stop-color="#32A071"/>
<stop offset="0.0685" stop-color="#2DA771"/>
<stop offset="0.4762" stop-color="#15CF74"/>
<stop offset="0.8009" stop-color="#06E775"/>
<stop offset="1" stop-color="#00F076"/>
</linearGradient>
<clipPath id="clip0_20005129_216">
<rect width="104.4" height="24.56" fill="white" transform="translate(11 10.7)"/>
</clipPath>
<clipPath id="clip1_20005129_216">
<rect width="104.4" height="24.56" fill="white" transform="translate(11 10.7)"/>
</clipPath>
<clipPath id="clip2_20005129_216">
<rect width="104.38" height="24.56" fill="white" transform="translate(11.01 10.7)"/>
</clipPath>
</defs>
</svg>
